G04 #@! TF.FileFunction,Legend,Top*
%FSLAX46Y46*%
G04 Gerber Fmt 4.6, Leading zero omitted, Abs format (unit mm)*
G04 Created by KiCad (PCBNEW 4.0.7) date 03/23/18 20:40:15*
%MOMM*%
%LPD*%
G01*
G04 APERTURE LIST*
%ADD10C,0.100000*%
%ADD11C,0.120000*%
%ADD12C,0.150000*%
G04 APERTURE END LIST*
D10*
D11*
X174990000Y-107890000D02*
G75*
G02X172990000Y-107890000I-1000000J0D01*
G01*
X172990000Y-107890000D02*
X171340000Y-107890000D01*
X171340000Y-107890000D02*
X171340000Y-128330000D01*
X171340000Y-128330000D02*
X176640000Y-128330000D01*
X176640000Y-128330000D02*
X176640000Y-107890000D01*
X176640000Y-107890000D02*
X174990000Y-107890000D01*
X201110000Y-39370462D02*
G75*
G03X195560000Y-37825170I-2990000J462D01*
G01*
X201110000Y-39369538D02*
G75*
G02X195560000Y-40914830I-2990000J-462D01*
G01*
X200620000Y-39370000D02*
G75*
G03X200620000Y-39370000I-2500000J0D01*
G01*
X195560000Y-37825000D02*
X195560000Y-40915000D01*
X201110000Y-46990462D02*
G75*
G03X195560000Y-45445170I-2990000J462D01*
G01*
X201110000Y-46989538D02*
G75*
G02X195560000Y-48534830I-2990000J-462D01*
G01*
X200620000Y-46990000D02*
G75*
G03X200620000Y-46990000I-2500000J0D01*
G01*
X195560000Y-45445000D02*
X195560000Y-48535000D01*
X201110000Y-54610462D02*
G75*
G03X195560000Y-53065170I-2990000J462D01*
G01*
X201110000Y-54609538D02*
G75*
G02X195560000Y-56154830I-2990000J-462D01*
G01*
X200620000Y-54610000D02*
G75*
G03X200620000Y-54610000I-2500000J0D01*
G01*
X195560000Y-53065000D02*
X195560000Y-56155000D01*
X201110000Y-62230462D02*
G75*
G03X195560000Y-60685170I-2990000J462D01*
G01*
X201110000Y-62229538D02*
G75*
G02X195560000Y-63774830I-2990000J-462D01*
G01*
X200620000Y-62230000D02*
G75*
G03X200620000Y-62230000I-2500000J0D01*
G01*
X195560000Y-60685000D02*
X195560000Y-63775000D01*
X201110000Y-69850462D02*
G75*
G03X195560000Y-68305170I-2990000J462D01*
G01*
X201110000Y-69849538D02*
G75*
G02X195560000Y-71394830I-2990000J-462D01*
G01*
X200620000Y-69850000D02*
G75*
G03X200620000Y-69850000I-2500000J0D01*
G01*
X195560000Y-68305000D02*
X195560000Y-71395000D01*
X201110000Y-77470462D02*
G75*
G03X195560000Y-75925170I-2990000J462D01*
G01*
X201110000Y-77469538D02*
G75*
G02X195560000Y-79014830I-2990000J-462D01*
G01*
X200620000Y-77470000D02*
G75*
G03X200620000Y-77470000I-2500000J0D01*
G01*
X195560000Y-75925000D02*
X195560000Y-79015000D01*
X201110000Y-85090462D02*
G75*
G03X195560000Y-83545170I-2990000J462D01*
G01*
X201110000Y-85089538D02*
G75*
G02X195560000Y-86634830I-2990000J-462D01*
G01*
X200620000Y-85090000D02*
G75*
G03X200620000Y-85090000I-2500000J0D01*
G01*
X195560000Y-83545000D02*
X195560000Y-86635000D01*
X201110000Y-92710462D02*
G75*
G03X195560000Y-91165170I-2990000J462D01*
G01*
X201110000Y-92709538D02*
G75*
G02X195560000Y-94254830I-2990000J-462D01*
G01*
X200620000Y-92710000D02*
G75*
G03X200620000Y-92710000I-2500000J0D01*
G01*
X195560000Y-91165000D02*
X195560000Y-94255000D01*
X201110000Y-100330462D02*
G75*
G03X195560000Y-98785170I-2990000J462D01*
G01*
X201110000Y-100329538D02*
G75*
G02X195560000Y-101874830I-2990000J-462D01*
G01*
X200620000Y-100330000D02*
G75*
G03X200620000Y-100330000I-2500000J0D01*
G01*
X195560000Y-98785000D02*
X195560000Y-101875000D01*
X201110000Y-107950462D02*
G75*
G03X195560000Y-106405170I-2990000J462D01*
G01*
X201110000Y-107949538D02*
G75*
G02X195560000Y-109494830I-2990000J-462D01*
G01*
X200620000Y-107950000D02*
G75*
G03X200620000Y-107950000I-2500000J0D01*
G01*
X195560000Y-106405000D02*
X195560000Y-109495000D01*
X201110000Y-115570462D02*
G75*
G03X195560000Y-114025170I-2990000J462D01*
G01*
X201110000Y-115569538D02*
G75*
G02X195560000Y-117114830I-2990000J-462D01*
G01*
X200620000Y-115570000D02*
G75*
G03X200620000Y-115570000I-2500000J0D01*
G01*
X195560000Y-114025000D02*
X195560000Y-117115000D01*
X201110000Y-123190462D02*
G75*
G03X195560000Y-121645170I-2990000J462D01*
G01*
X201110000Y-123189538D02*
G75*
G02X195560000Y-124734830I-2990000J-462D01*
G01*
X200620000Y-123190000D02*
G75*
G03X200620000Y-123190000I-2500000J0D01*
G01*
X195560000Y-121645000D02*
X195560000Y-124735000D01*
X201110000Y-132080462D02*
G75*
G03X195560000Y-130535170I-2990000J462D01*
G01*
X201110000Y-132079538D02*
G75*
G02X195560000Y-133624830I-2990000J-462D01*
G01*
X200620000Y-132080000D02*
G75*
G03X200620000Y-132080000I-2500000J0D01*
G01*
X195560000Y-130535000D02*
X195560000Y-133625000D01*
X201110000Y-139700462D02*
G75*
G03X195560000Y-138155170I-2990000J462D01*
G01*
X201110000Y-139699538D02*
G75*
G02X195560000Y-141244830I-2990000J-462D01*
G01*
X200620000Y-139700000D02*
G75*
G03X200620000Y-139700000I-2500000J0D01*
G01*
X195560000Y-138155000D02*
X195560000Y-141245000D01*
X201110000Y-147320462D02*
G75*
G03X195560000Y-145775170I-2990000J462D01*
G01*
X201110000Y-147319538D02*
G75*
G02X195560000Y-148864830I-2990000J-462D01*
G01*
X200620000Y-147320000D02*
G75*
G03X200620000Y-147320000I-2500000J0D01*
G01*
X195560000Y-145775000D02*
X195560000Y-148865000D01*
X201110000Y-156210462D02*
G75*
G03X195560000Y-154665170I-2990000J462D01*
G01*
X201110000Y-156209538D02*
G75*
G02X195560000Y-157754830I-2990000J-462D01*
G01*
X200620000Y-156210000D02*
G75*
G03X200620000Y-156210000I-2500000J0D01*
G01*
X195560000Y-154665000D02*
X195560000Y-157755000D01*
X163440000Y-69250000D02*
X163440000Y-70450000D01*
X161680000Y-70450000D02*
X161680000Y-69250000D01*
X174990000Y-72330000D02*
G75*
G02X172990000Y-72330000I-1000000J0D01*
G01*
X172990000Y-72330000D02*
X171340000Y-72330000D01*
X171340000Y-72330000D02*
X171340000Y-92770000D01*
X171340000Y-92770000D02*
X176640000Y-92770000D01*
X176640000Y-92770000D02*
X176640000Y-72330000D01*
X176640000Y-72330000D02*
X174990000Y-72330000D01*
X159325000Y-69265000D02*
X160715000Y-69265000D01*
X159325000Y-69265000D02*
X159325000Y-69140000D01*
X160715000Y-69265000D02*
X160715000Y-69140000D01*
X159325000Y-69265000D02*
X159411724Y-69265000D01*
X160628276Y-69265000D02*
X160715000Y-69265000D01*
X159325000Y-68580000D02*
X159325000Y-67895000D01*
X159325000Y-67895000D02*
X160020000Y-67895000D01*
D12*
X173228095Y-106342381D02*
X173228095Y-107151905D01*
X173275714Y-107247143D01*
X173323333Y-107294762D01*
X173418571Y-107342381D01*
X173609048Y-107342381D01*
X173704286Y-107294762D01*
X173751905Y-107247143D01*
X173799524Y-107151905D01*
X173799524Y-106342381D01*
X174228095Y-106437619D02*
X174275714Y-106390000D01*
X174370952Y-106342381D01*
X174609048Y-106342381D01*
X174704286Y-106390000D01*
X174751905Y-106437619D01*
X174799524Y-106532857D01*
X174799524Y-106628095D01*
X174751905Y-106770952D01*
X174180476Y-107342381D01*
X174799524Y-107342381D01*
X197381905Y-35862381D02*
X197381905Y-34862381D01*
X197620000Y-34862381D01*
X197762858Y-34910000D01*
X197858096Y-35005238D01*
X197905715Y-35100476D01*
X197953334Y-35290952D01*
X197953334Y-35433810D01*
X197905715Y-35624286D01*
X197858096Y-35719524D01*
X197762858Y-35814762D01*
X197620000Y-35862381D01*
X197381905Y-35862381D01*
X198905715Y-35862381D02*
X198334286Y-35862381D01*
X198620000Y-35862381D02*
X198620000Y-34862381D01*
X198524762Y-35005238D01*
X198429524Y-35100476D01*
X198334286Y-35148095D01*
X197381905Y-43482381D02*
X197381905Y-42482381D01*
X197620000Y-42482381D01*
X197762858Y-42530000D01*
X197858096Y-42625238D01*
X197905715Y-42720476D01*
X197953334Y-42910952D01*
X197953334Y-43053810D01*
X197905715Y-43244286D01*
X197858096Y-43339524D01*
X197762858Y-43434762D01*
X197620000Y-43482381D01*
X197381905Y-43482381D01*
X198334286Y-42577619D02*
X198381905Y-42530000D01*
X198477143Y-42482381D01*
X198715239Y-42482381D01*
X198810477Y-42530000D01*
X198858096Y-42577619D01*
X198905715Y-42672857D01*
X198905715Y-42768095D01*
X198858096Y-42910952D01*
X198286667Y-43482381D01*
X198905715Y-43482381D01*
X197381905Y-51102381D02*
X197381905Y-50102381D01*
X197620000Y-50102381D01*
X197762858Y-50150000D01*
X197858096Y-50245238D01*
X197905715Y-50340476D01*
X197953334Y-50530952D01*
X197953334Y-50673810D01*
X197905715Y-50864286D01*
X197858096Y-50959524D01*
X197762858Y-51054762D01*
X197620000Y-51102381D01*
X197381905Y-51102381D01*
X198286667Y-50102381D02*
X198905715Y-50102381D01*
X198572381Y-50483333D01*
X198715239Y-50483333D01*
X198810477Y-50530952D01*
X198858096Y-50578571D01*
X198905715Y-50673810D01*
X198905715Y-50911905D01*
X198858096Y-51007143D01*
X198810477Y-51054762D01*
X198715239Y-51102381D01*
X198429524Y-51102381D01*
X198334286Y-51054762D01*
X198286667Y-51007143D01*
X197381905Y-58722381D02*
X197381905Y-57722381D01*
X197620000Y-57722381D01*
X197762858Y-57770000D01*
X197858096Y-57865238D01*
X197905715Y-57960476D01*
X197953334Y-58150952D01*
X197953334Y-58293810D01*
X197905715Y-58484286D01*
X197858096Y-58579524D01*
X197762858Y-58674762D01*
X197620000Y-58722381D01*
X197381905Y-58722381D01*
X198810477Y-58055714D02*
X198810477Y-58722381D01*
X198572381Y-57674762D02*
X198334286Y-58389048D01*
X198953334Y-58389048D01*
X197381905Y-66342381D02*
X197381905Y-65342381D01*
X197620000Y-65342381D01*
X197762858Y-65390000D01*
X197858096Y-65485238D01*
X197905715Y-65580476D01*
X197953334Y-65770952D01*
X197953334Y-65913810D01*
X197905715Y-66104286D01*
X197858096Y-66199524D01*
X197762858Y-66294762D01*
X197620000Y-66342381D01*
X197381905Y-66342381D01*
X198858096Y-65342381D02*
X198381905Y-65342381D01*
X198334286Y-65818571D01*
X198381905Y-65770952D01*
X198477143Y-65723333D01*
X198715239Y-65723333D01*
X198810477Y-65770952D01*
X198858096Y-65818571D01*
X198905715Y-65913810D01*
X198905715Y-66151905D01*
X198858096Y-66247143D01*
X198810477Y-66294762D01*
X198715239Y-66342381D01*
X198477143Y-66342381D01*
X198381905Y-66294762D01*
X198334286Y-66247143D01*
X197381905Y-73962381D02*
X197381905Y-72962381D01*
X197620000Y-72962381D01*
X197762858Y-73010000D01*
X197858096Y-73105238D01*
X197905715Y-73200476D01*
X197953334Y-73390952D01*
X197953334Y-73533810D01*
X197905715Y-73724286D01*
X197858096Y-73819524D01*
X197762858Y-73914762D01*
X197620000Y-73962381D01*
X197381905Y-73962381D01*
X198810477Y-72962381D02*
X198620000Y-72962381D01*
X198524762Y-73010000D01*
X198477143Y-73057619D01*
X198381905Y-73200476D01*
X198334286Y-73390952D01*
X198334286Y-73771905D01*
X198381905Y-73867143D01*
X198429524Y-73914762D01*
X198524762Y-73962381D01*
X198715239Y-73962381D01*
X198810477Y-73914762D01*
X198858096Y-73867143D01*
X198905715Y-73771905D01*
X198905715Y-73533810D01*
X198858096Y-73438571D01*
X198810477Y-73390952D01*
X198715239Y-73343333D01*
X198524762Y-73343333D01*
X198429524Y-73390952D01*
X198381905Y-73438571D01*
X198334286Y-73533810D01*
X197381905Y-81582381D02*
X197381905Y-80582381D01*
X197620000Y-80582381D01*
X197762858Y-80630000D01*
X197858096Y-80725238D01*
X197905715Y-80820476D01*
X197953334Y-81010952D01*
X197953334Y-81153810D01*
X197905715Y-81344286D01*
X197858096Y-81439524D01*
X197762858Y-81534762D01*
X197620000Y-81582381D01*
X197381905Y-81582381D01*
X198286667Y-80582381D02*
X198953334Y-80582381D01*
X198524762Y-81582381D01*
X197381905Y-89202381D02*
X197381905Y-88202381D01*
X197620000Y-88202381D01*
X197762858Y-88250000D01*
X197858096Y-88345238D01*
X197905715Y-88440476D01*
X197953334Y-88630952D01*
X197953334Y-88773810D01*
X197905715Y-88964286D01*
X197858096Y-89059524D01*
X197762858Y-89154762D01*
X197620000Y-89202381D01*
X197381905Y-89202381D01*
X198524762Y-88630952D02*
X198429524Y-88583333D01*
X198381905Y-88535714D01*
X198334286Y-88440476D01*
X198334286Y-88392857D01*
X198381905Y-88297619D01*
X198429524Y-88250000D01*
X198524762Y-88202381D01*
X198715239Y-88202381D01*
X198810477Y-88250000D01*
X198858096Y-88297619D01*
X198905715Y-88392857D01*
X198905715Y-88440476D01*
X198858096Y-88535714D01*
X198810477Y-88583333D01*
X198715239Y-88630952D01*
X198524762Y-88630952D01*
X198429524Y-88678571D01*
X198381905Y-88726190D01*
X198334286Y-88821429D01*
X198334286Y-89011905D01*
X198381905Y-89107143D01*
X198429524Y-89154762D01*
X198524762Y-89202381D01*
X198715239Y-89202381D01*
X198810477Y-89154762D01*
X198858096Y-89107143D01*
X198905715Y-89011905D01*
X198905715Y-88821429D01*
X198858096Y-88726190D01*
X198810477Y-88678571D01*
X198715239Y-88630952D01*
X197381905Y-96822381D02*
X197381905Y-95822381D01*
X197620000Y-95822381D01*
X197762858Y-95870000D01*
X197858096Y-95965238D01*
X197905715Y-96060476D01*
X197953334Y-96250952D01*
X197953334Y-96393810D01*
X197905715Y-96584286D01*
X197858096Y-96679524D01*
X197762858Y-96774762D01*
X197620000Y-96822381D01*
X197381905Y-96822381D01*
X198429524Y-96822381D02*
X198620000Y-96822381D01*
X198715239Y-96774762D01*
X198762858Y-96727143D01*
X198858096Y-96584286D01*
X198905715Y-96393810D01*
X198905715Y-96012857D01*
X198858096Y-95917619D01*
X198810477Y-95870000D01*
X198715239Y-95822381D01*
X198524762Y-95822381D01*
X198429524Y-95870000D01*
X198381905Y-95917619D01*
X198334286Y-96012857D01*
X198334286Y-96250952D01*
X198381905Y-96346190D01*
X198429524Y-96393810D01*
X198524762Y-96441429D01*
X198715239Y-96441429D01*
X198810477Y-96393810D01*
X198858096Y-96346190D01*
X198905715Y-96250952D01*
X196905714Y-104442381D02*
X196905714Y-103442381D01*
X197143809Y-103442381D01*
X197286667Y-103490000D01*
X197381905Y-103585238D01*
X197429524Y-103680476D01*
X197477143Y-103870952D01*
X197477143Y-104013810D01*
X197429524Y-104204286D01*
X197381905Y-104299524D01*
X197286667Y-104394762D01*
X197143809Y-104442381D01*
X196905714Y-104442381D01*
X198429524Y-104442381D02*
X197858095Y-104442381D01*
X198143809Y-104442381D02*
X198143809Y-103442381D01*
X198048571Y-103585238D01*
X197953333Y-103680476D01*
X197858095Y-103728095D01*
X199048571Y-103442381D02*
X199143810Y-103442381D01*
X199239048Y-103490000D01*
X199286667Y-103537619D01*
X199334286Y-103632857D01*
X199381905Y-103823333D01*
X199381905Y-104061429D01*
X199334286Y-104251905D01*
X199286667Y-104347143D01*
X199239048Y-104394762D01*
X199143810Y-104442381D01*
X199048571Y-104442381D01*
X198953333Y-104394762D01*
X198905714Y-104347143D01*
X198858095Y-104251905D01*
X198810476Y-104061429D01*
X198810476Y-103823333D01*
X198858095Y-103632857D01*
X198905714Y-103537619D01*
X198953333Y-103490000D01*
X199048571Y-103442381D01*
X196905714Y-112062381D02*
X196905714Y-111062381D01*
X197143809Y-111062381D01*
X197286667Y-111110000D01*
X197381905Y-111205238D01*
X197429524Y-111300476D01*
X197477143Y-111490952D01*
X197477143Y-111633810D01*
X197429524Y-111824286D01*
X197381905Y-111919524D01*
X197286667Y-112014762D01*
X197143809Y-112062381D01*
X196905714Y-112062381D01*
X198429524Y-112062381D02*
X197858095Y-112062381D01*
X198143809Y-112062381D02*
X198143809Y-111062381D01*
X198048571Y-111205238D01*
X197953333Y-111300476D01*
X197858095Y-111348095D01*
X199381905Y-112062381D02*
X198810476Y-112062381D01*
X199096190Y-112062381D02*
X199096190Y-111062381D01*
X199000952Y-111205238D01*
X198905714Y-111300476D01*
X198810476Y-111348095D01*
X196905714Y-119682381D02*
X196905714Y-118682381D01*
X197143809Y-118682381D01*
X197286667Y-118730000D01*
X197381905Y-118825238D01*
X197429524Y-118920476D01*
X197477143Y-119110952D01*
X197477143Y-119253810D01*
X197429524Y-119444286D01*
X197381905Y-119539524D01*
X197286667Y-119634762D01*
X197143809Y-119682381D01*
X196905714Y-119682381D01*
X198429524Y-119682381D02*
X197858095Y-119682381D01*
X198143809Y-119682381D02*
X198143809Y-118682381D01*
X198048571Y-118825238D01*
X197953333Y-118920476D01*
X197858095Y-118968095D01*
X198810476Y-118777619D02*
X198858095Y-118730000D01*
X198953333Y-118682381D01*
X199191429Y-118682381D01*
X199286667Y-118730000D01*
X199334286Y-118777619D01*
X199381905Y-118872857D01*
X199381905Y-118968095D01*
X199334286Y-119110952D01*
X198762857Y-119682381D01*
X199381905Y-119682381D01*
X196905714Y-128572381D02*
X196905714Y-127572381D01*
X197143809Y-127572381D01*
X197286667Y-127620000D01*
X197381905Y-127715238D01*
X197429524Y-127810476D01*
X197477143Y-128000952D01*
X197477143Y-128143810D01*
X197429524Y-128334286D01*
X197381905Y-128429524D01*
X197286667Y-128524762D01*
X197143809Y-128572381D01*
X196905714Y-128572381D01*
X198429524Y-128572381D02*
X197858095Y-128572381D01*
X198143809Y-128572381D02*
X198143809Y-127572381D01*
X198048571Y-127715238D01*
X197953333Y-127810476D01*
X197858095Y-127858095D01*
X198762857Y-127572381D02*
X199381905Y-127572381D01*
X199048571Y-127953333D01*
X199191429Y-127953333D01*
X199286667Y-128000952D01*
X199334286Y-128048571D01*
X199381905Y-128143810D01*
X199381905Y-128381905D01*
X199334286Y-128477143D01*
X199286667Y-128524762D01*
X199191429Y-128572381D01*
X198905714Y-128572381D01*
X198810476Y-128524762D01*
X198762857Y-128477143D01*
X196905714Y-136192381D02*
X196905714Y-135192381D01*
X197143809Y-135192381D01*
X197286667Y-135240000D01*
X197381905Y-135335238D01*
X197429524Y-135430476D01*
X197477143Y-135620952D01*
X197477143Y-135763810D01*
X197429524Y-135954286D01*
X197381905Y-136049524D01*
X197286667Y-136144762D01*
X197143809Y-136192381D01*
X196905714Y-136192381D01*
X198429524Y-136192381D02*
X197858095Y-136192381D01*
X198143809Y-136192381D02*
X198143809Y-135192381D01*
X198048571Y-135335238D01*
X197953333Y-135430476D01*
X197858095Y-135478095D01*
X199286667Y-135525714D02*
X199286667Y-136192381D01*
X199048571Y-135144762D02*
X198810476Y-135859048D01*
X199429524Y-135859048D01*
X196905714Y-143812381D02*
X196905714Y-142812381D01*
X197143809Y-142812381D01*
X197286667Y-142860000D01*
X197381905Y-142955238D01*
X197429524Y-143050476D01*
X197477143Y-143240952D01*
X197477143Y-143383810D01*
X197429524Y-143574286D01*
X197381905Y-143669524D01*
X197286667Y-143764762D01*
X197143809Y-143812381D01*
X196905714Y-143812381D01*
X198429524Y-143812381D02*
X197858095Y-143812381D01*
X198143809Y-143812381D02*
X198143809Y-142812381D01*
X198048571Y-142955238D01*
X197953333Y-143050476D01*
X197858095Y-143098095D01*
X199334286Y-142812381D02*
X198858095Y-142812381D01*
X198810476Y-143288571D01*
X198858095Y-143240952D01*
X198953333Y-143193333D01*
X199191429Y-143193333D01*
X199286667Y-143240952D01*
X199334286Y-143288571D01*
X199381905Y-143383810D01*
X199381905Y-143621905D01*
X199334286Y-143717143D01*
X199286667Y-143764762D01*
X199191429Y-143812381D01*
X198953333Y-143812381D01*
X198858095Y-143764762D01*
X198810476Y-143717143D01*
X196905714Y-152702381D02*
X196905714Y-151702381D01*
X197143809Y-151702381D01*
X197286667Y-151750000D01*
X197381905Y-151845238D01*
X197429524Y-151940476D01*
X197477143Y-152130952D01*
X197477143Y-152273810D01*
X197429524Y-152464286D01*
X197381905Y-152559524D01*
X197286667Y-152654762D01*
X197143809Y-152702381D01*
X196905714Y-152702381D01*
X198429524Y-152702381D02*
X197858095Y-152702381D01*
X198143809Y-152702381D02*
X198143809Y-151702381D01*
X198048571Y-151845238D01*
X197953333Y-151940476D01*
X197858095Y-151988095D01*
X199286667Y-151702381D02*
X199096190Y-151702381D01*
X199000952Y-151750000D01*
X198953333Y-151797619D01*
X198858095Y-151940476D01*
X198810476Y-152130952D01*
X198810476Y-152511905D01*
X198858095Y-152607143D01*
X198905714Y-152654762D01*
X199000952Y-152702381D01*
X199191429Y-152702381D01*
X199286667Y-152654762D01*
X199334286Y-152607143D01*
X199381905Y-152511905D01*
X199381905Y-152273810D01*
X199334286Y-152178571D01*
X199286667Y-152130952D01*
X199191429Y-152083333D01*
X199000952Y-152083333D01*
X198905714Y-152130952D01*
X198858095Y-152178571D01*
X198810476Y-152273810D01*
X161312381Y-70016666D02*
X160836190Y-70350000D01*
X161312381Y-70588095D02*
X160312381Y-70588095D01*
X160312381Y-70207142D01*
X160360000Y-70111904D01*
X160407619Y-70064285D01*
X160502857Y-70016666D01*
X160645714Y-70016666D01*
X160740952Y-70064285D01*
X160788571Y-70111904D01*
X160836190Y-70207142D01*
X160836190Y-70588095D01*
X161312381Y-69064285D02*
X161312381Y-69635714D01*
X161312381Y-69350000D02*
X160312381Y-69350000D01*
X160455238Y-69445238D01*
X160550476Y-69540476D01*
X160598095Y-69635714D01*
X173228095Y-70782381D02*
X173228095Y-71591905D01*
X173275714Y-71687143D01*
X173323333Y-71734762D01*
X173418571Y-71782381D01*
X173609048Y-71782381D01*
X173704286Y-71734762D01*
X173751905Y-71687143D01*
X173799524Y-71591905D01*
X173799524Y-70782381D01*
X174799524Y-71782381D02*
X174228095Y-71782381D01*
X174513809Y-71782381D02*
X174513809Y-70782381D01*
X174418571Y-70925238D01*
X174323333Y-71020476D01*
X174228095Y-71068095D01*
X159686667Y-66472381D02*
X159686667Y-67186667D01*
X159639047Y-67329524D01*
X159543809Y-67424762D01*
X159400952Y-67472381D01*
X159305714Y-67472381D01*
X160686667Y-67472381D02*
X160115238Y-67472381D01*
X160400952Y-67472381D02*
X160400952Y-66472381D01*
X160305714Y-66615238D01*
X160210476Y-66710476D01*
X160115238Y-66758095D01*
M02*
