M48
;DRILL file {KiCad 4.0.7} date 03/23/18 20:40:18
;FORMAT={-:-/ absolute / inch / decimal}
FMAT,2
INCH,TZ
T1C0.016
T2C0.020
T3C0.031
T4C0.035
%
G90
G05
M72
T1
X6.4Y-2.8
X6.55Y-2.65
X6.55Y-3.5
X6.6Y-2.55
X6.6Y-3.4
X6.65Y-2.25
X6.7Y-3.6
X6.75Y-2.25
X6.75Y-2.55
X6.75Y-2.65
X6.75Y-4.
X6.9Y-5.45
X7.Y-1.95
X7.Y-2.25
X7.Y-2.55
X7.Y-2.65
X7.Y-2.8
X7.Y-4.25
X7.05Y-3.6
X7.05Y-4.5
X7.05Y-5.45
X7.1Y-1.95
X7.1Y-2.25
X7.1Y-2.55
X7.1Y-2.65
X7.1Y-3.5
X7.1Y-4.9
X7.15Y-3.4
X7.15Y-4.8
X7.2Y-3.3
X7.2Y-4.7
X7.2Y-5.7
X7.3Y-5.7
X7.65Y-4.
X7.65Y-4.25
X7.65Y-4.35
X7.65Y-4.45
X7.65Y-5.4
X7.65Y-5.5
X7.65Y-5.65
X7.65Y-5.75
X7.65Y-6.
X7.65Y-6.1
X7.75Y-4.55
X7.9Y-4.4
X8.Y-4.15
T2
X6.3Y-2.7
T3
X6.7Y-2.9
X6.7Y-3.
X6.7Y-3.1
X6.7Y-3.2
X6.7Y-3.3
X6.7Y-3.4
X6.7Y-3.5
X6.7Y-3.6
X6.7Y-4.3
X6.7Y-4.4
X6.7Y-4.5
X6.7Y-4.6
X6.7Y-4.7
X6.7Y-4.8
X6.7Y-4.9
X6.7Y-5.
X7.Y-2.9
X7.Y-3.
X7.Y-3.1
X7.Y-3.2
X7.Y-3.3
X7.Y-3.4
X7.Y-3.5
X7.Y-3.6
X7.Y-4.3
X7.Y-4.4
X7.Y-4.5
X7.Y-4.6
X7.Y-4.7
X7.Y-4.8
X7.Y-4.9
X7.Y-5.
T4
X7.75Y-1.55
X7.75Y-1.85
X7.75Y-2.15
X7.75Y-2.45
X7.75Y-2.75
X7.75Y-3.05
X7.75Y-3.35
X7.75Y-3.65
X7.75Y-3.95
X7.75Y-4.25
X7.75Y-4.55
X7.75Y-4.85
X7.75Y-5.2
X7.75Y-5.5
X7.75Y-5.8
X7.75Y-6.15
X7.85Y-1.55
X7.85Y-1.85
X7.85Y-2.15
X7.85Y-2.45
X7.85Y-2.75
X7.85Y-3.05
X7.85Y-3.35
X7.85Y-3.65
X7.85Y-3.95
X7.85Y-4.25
X7.85Y-4.55
X7.85Y-4.85
X7.85Y-5.2
X7.85Y-5.5
X7.85Y-5.8
X7.85Y-6.15
T0
M30
